<?xml version="1.0" encoding="iso-8859-1"?>
<!-- Generator: Adobe Illustrator 19.0.0, SVG Export Plug-In . SVG Version: 6.00 Build 0)  -->
<svg version="1.1" id="Layer_1" xmlns="http://www.w3.org/2000/svg" xmlns:xlink="http://www.w3.org/1999/xlink" x="0px" y="0px"
	 viewBox="0 0 512 512" style="enable-background:new 0 0 512 512;" xml:space="preserve">
<path style="fill:#87BDF4;" d="M512,256c0,141.241-114.759,256-256,256S0,397.241,0,256S114.759,0,256,0S512,114.759,512,256"/>
<path style="fill:#BA5242;" d="M0,256c0,85.628,41.49,160.662,105.931,207.448V229.517H1.766C0.883,238.345,0,247.172,0,256"/>
<path style="fill:#EB6A5C;" d="M110.345,123.586H37.076c-19.421,31.779-31.779,67.09-35.31,105.931h109.462
	c7.062,0,13.241-6.179,13.241-13.241v-79.448C123.586,129.766,117.407,123.586,110.345,123.586"/>
<path style="fill:#1A7064;" d="M37.076,123.586h77.683l-31.78-55.614C65.324,83.862,49.434,102.4,37.076,123.586"/>
<path style="fill:#FFFFFF;" d="M79.448,176.552c0,15.007-11.476,26.483-26.483,26.483s-26.483-11.476-26.483-26.483
	s11.476-26.483,26.483-26.483S79.448,161.545,79.448,176.552"/>
<path style="fill:#CAD4DB;" d="M476.69,317.793H105.931l34.428-82.979c6.179-14.124,19.421-22.952,34.428-22.952h233.048
	c15.007,0,28.248,8.828,34.428,22.952L476.69,317.793z"/>
<g>
	<path style="fill:#A4ADB2;" d="M203.034,317.793v-44.138c0-16.772,14.124-30.897,30.897-30.897s30.897,14.124,30.897,30.897v44.138
		H203.034z"/>
	<path style="fill:#A4ADB2;" d="M326.621,317.793v-44.138c0-16.772,14.124-30.897,30.897-30.897s30.897,14.124,30.897,30.897v44.138
		H326.621z"/>
</g>
<path style="fill:#E6EEF4;" d="M476.69,385.766v-67.972H105.931v145.655C148.303,494.345,199.503,512,256,512
	C350.455,512,432.552,461.683,476.69,385.766"/>
<g>
	<path style="fill:#CAD4DB;" d="M401.655,410.483c-16.772,0-30.897,14.124-30.897,30.897v43.255
		c22.952-11.476,43.255-26.483,61.793-43.255l0,0C432.552,424.607,418.428,410.483,401.655,410.483"/>
	<path style="fill:#CAD4DB;" d="M295.724,419.31c-16.772,0-30.897,14.124-30.897,30.897V512c21.186-0.883,42.372-4.414,61.793-9.71
		v-52.083C326.621,433.434,312.497,419.31,295.724,419.31"/>
	<path style="fill:#CAD4DB;" d="M189.793,419.31c-16.772,0-30.897,14.124-30.897,30.897v42.372
		c19.421,7.945,40.607,13.241,61.793,16.772v-59.145C220.69,433.434,206.566,419.31,189.793,419.31"/>
	<polygon style="fill:#CAD4DB;" points="132.414,388.414 450.207,388.414 450.207,344.276 132.414,344.276 	"/>
</g>
<g>
	<path style="fill:#A4ADB2;" d="M300.138,300.138h-8.828c-5.297,0-8.828-3.531-8.828-8.828s3.531-8.828,8.828-8.828h8.828
		c5.297,0,8.828,3.531,8.828,8.828S305.434,300.138,300.138,300.138"/>
	<path style="fill:#A4ADB2;" d="M300.138,273.655h-8.828c-5.297,0-8.828-3.531-8.828-8.828s3.531-8.828,8.828-8.828h8.828
		c5.297,0,8.828,3.531,8.828,8.828S305.434,273.655,300.138,273.655"/>
	<path style="fill:#A4ADB2;" d="M176.552,300.138h-8.828c-5.297,0-8.828-3.531-8.828-8.828s3.531-8.828,8.828-8.828h8.828
		c5.297,0,8.828,3.531,8.828,8.828S181.848,300.138,176.552,300.138"/>
	<path style="fill:#A4ADB2;" d="M176.552,273.655h-8.828c-5.297,0-8.828-3.531-8.828-8.828s3.531-8.828,8.828-8.828h8.828
		c5.297,0,8.828,3.531,8.828,8.828C185.379,270.124,181.848,273.655,176.552,273.655"/>
	<path style="fill:#A4ADB2;" d="M423.724,300.138h-8.828c-5.297,0-8.828-3.531-8.828-8.828s3.531-8.828,8.828-8.828h8.828
		c5.297,0,8.828,3.531,8.828,8.828S429.021,300.138,423.724,300.138"/>
	<path style="fill:#A4ADB2;" d="M423.724,273.655h-8.828c-5.297,0-8.828-3.531-8.828-8.828s3.531-8.828,8.828-8.828h8.828
		c5.297,0,8.828,3.531,8.828,8.828S429.021,273.655,423.724,273.655"/>
	<polygon style="fill:#A4ADB2;" points="397.241,211.862 308.966,211.862 335.448,167.724 370.759,167.724 	"/>
	<polygon style="fill:#A4ADB2;" points="273.655,211.862 185.379,211.862 211.862,167.724 247.172,167.724 	"/>
</g>
<g>
	<path style="fill:#EB6A5C;" d="M55.614,414.897h50.317v-17.655H42.372C46.786,403.421,51.2,409.6,55.614,414.897"/>
	<path style="fill:#EB6A5C;" d="M31.779,379.586h74.152v-17.655H22.952C25.6,368.11,29.131,373.407,31.779,379.586"/>
	<path style="fill:#EB6A5C;" d="M15.89,344.276h90.041v-17.655H9.71C11.476,332.8,13.241,338.097,15.89,344.276"/>
	<path style="fill:#EB6A5C;" d="M5.297,308.966h100.634V291.31H2.648C3.531,297.49,4.414,302.786,5.297,308.966"/>
	<path style="fill:#EB6A5C;" d="M0.883,273.655h105.048V256H0C0,262.179,0,267.476,0.883,273.655"/>
</g>
<g>
</g>
<g>
</g>
<g>
</g>
<g>
</g>
<g>
</g>
<g>
</g>
<g>
</g>
<g>
</g>
<g>
</g>
<g>
</g>
<g>
</g>
<g>
</g>
<g>
</g>
<g>
</g>
<g>
</g>
</svg>
