<?xml version="1.0" encoding="iso-8859-1"?>
<!-- Generator: Adobe Illustrator 19.0.0, SVG Export Plug-In . SVG Version: 6.00 Build 0)  -->
<svg version="1.1" id="Layer_1" xmlns="http://www.w3.org/2000/svg" xmlns:xlink="http://www.w3.org/1999/xlink" x="0px" y="0px"
	 viewBox="0 0 512 512" style="enable-background:new 0 0 512 512;" xml:space="preserve">
<path style="fill:#324D5B;" d="M256,0c141.384,0,256,114.616,256,256S397.384,512,256,512S0,397.384,0,256S114.616,0,256,0z"/>
<path style="fill:#51BBA8;" d="M458.988,411.914c-60.436-11.305-128.451-17.674-200.427-17.674
	c-73.754,0-143.324,6.712-204.851,18.555C100.541,473.129,173.711,512,256,512C338.693,512,412.181,472.755,458.988,411.914
	L458.988,411.914z"/>
<path style="fill:#E2574C;" d="M256,128c76.349,0,138.24,52.726,138.24,117.76c0,65.039-61.891,117.76-138.24,117.76
	s-138.24-52.721-138.24-117.76C117.76,180.726,179.651,128,256,128z"/>
<g>
	<path style="fill:#D0564E;" d="M310.569,208.63c5.565,8.745,14.961,13.435,24.499,13.435c6.195,0,12.457-1.981,17.772-6.113
		l27.628-21.484c-1.27-2.232-2.647-4.413-4.076-6.564l-28.268,21.985c-3.779,2.939-8.294,4.495-13.056,4.495
		c-7.352,0-14.085-3.697-18.022-9.882l-48.358-75.991c-3.098-0.241-6.231-0.379-9.385-0.445L310.569,208.63L310.569,208.63z
		 M131.538,194.463l27.628,21.489c5.315,4.132,11.576,6.113,17.772,6.113c9.539,0,18.934-4.69,24.499-13.435l51.267-80.558
		c-3.154,0.067-6.287,0.205-9.385,0.445l-48.358,75.991c-3.937,6.185-10.67,9.876-18.017,9.876c-4.762,0-9.277-1.556-13.056-4.495
		l-28.278-21.985C134.185,190.054,132.808,192.236,131.538,194.463z"/>
</g>
<path style="fill:#419686;" d="M256,394.24c87.66,0,158.72,6.881,158.72,15.36c0,8.479-71.06,15.36-158.72,15.36
	S97.28,418.079,97.28,409.6C97.28,401.121,168.34,394.24,256,394.24z"/>
<path style="fill:#F6C37A;" d="M352.84,215.951c-13.496,10.496-33.091,7.101-42.271-7.322L256,122.88l-54.569,85.75
	c-9.175,14.423-28.78,17.818-42.271,7.322l-67-52.111l2.806,16.824C106.726,251.249,112.64,312.438,112.64,384h286.72
	c0-71.562,5.908-132.751,17.674-203.336l2.806-16.824L352.84,215.951z"/>
<path style="fill:#F8CF95;" d="M202.015,207.713l15.698,99.487h81.029l17.5-92.078c-2.14-1.828-4.07-3.983-5.668-6.492L259.261,128
	h-6.518L202.015,207.713L202.015,207.713z"/>
<path style="fill:#E8B873;" d="M414.029,199.608c0.968-6.272,1.935-12.534,3.005-18.944l2.806-16.824l-25.16,19.569
	C396.575,192.476,404.48,199.286,414.029,199.608L414.029,199.608z M92.16,163.84l2.806,16.824c1.07,6.41,2.033,12.672,3.005,18.944
	c9.549-0.323,17.449-7.137,19.348-16.205L92.16,163.84z"/>
<path style="fill:#EAC48D;" d="M242.836,143.57c3.564,3.016,8.125,4.91,13.164,4.91c5.038,0,9.595-1.894,13.164-4.91L256,122.88
	L242.836,143.57z"/>
<path style="fill:#DDAF6E;" d="M402.621,296.96H109.379c0.384,5.1,0.753,10.225,1.07,15.36h291.098
	C401.864,307.185,402.237,302.06,402.621,296.96z"/>
<path style="fill:#F8CF95;" d="M256,97.28c-11.31,0-20.48,9.17-20.48,20.48s9.17,20.48,20.48,20.48c11.31,0,20.48-9.17,20.48-20.48
	S267.31,97.28,256,97.28z M97.28,148.48c-11.31,0-20.48,9.17-20.48,20.48c0,11.31,9.17,20.48,20.48,20.48s20.48-9.17,20.48-20.48
	C117.76,157.65,108.59,148.48,97.28,148.48z M414.72,148.48c-11.31,0-20.48,9.17-20.48,20.48c0,11.31,9.17,20.48,20.48,20.48
	c11.31,0,20.48-9.17,20.48-20.48C435.2,157.65,426.03,148.48,414.72,148.48z"/>
<path style="fill:#D4654F;" d="M112.64,373.76h286.72V384H112.64V373.76z"/>
<path style="fill:#F2F1EF;" d="M156.16,332.8c-7.071,0-12.8,5.729-12.8,12.8c0,7.071,5.729,12.8,12.8,12.8
	c7.071,0,12.8-5.729,12.8-12.8C168.96,338.529,163.231,332.8,156.16,332.8z M207.36,332.8c-7.071,0-12.8,5.729-12.8,12.8
	c0,7.071,5.729,12.8,12.8,12.8s12.8-5.729,12.8-12.8C220.16,338.529,214.431,332.8,207.36,332.8z M360.96,332.8
	c-7.071,0-12.8,5.729-12.8,12.8c0,7.071,5.729,12.8,12.8,12.8s12.8-5.729,12.8-12.8C373.76,338.529,368.031,332.8,360.96,332.8z
	 M309.76,332.8c-7.071,0-12.8,5.729-12.8,12.8c0,7.071,5.729,12.8,12.8,12.8c7.071,0,12.8-5.729,12.8-12.8
	C322.56,338.529,316.831,332.8,309.76,332.8z M258.56,332.8c-7.071,0-12.8,5.729-12.8,12.8c0,7.071,5.729,12.8,12.8,12.8
	c7.071,0,12.8-5.729,12.8-12.8C271.36,338.529,265.631,332.8,258.56,332.8z"/>
<path style="fill:#2EA9D3;" d="M261.12,215.04c11.31,0,20.48,9.17,20.48,20.48c0,11.31-9.17,20.48-20.48,20.48
	c-11.31,0-20.48-9.17-20.48-20.48C240.64,224.21,249.81,215.04,261.12,215.04z"/>
<path style="fill:#FBE1BD;" d="M404.48,384H107.52c-5.652,0-10.24,4.588-10.24,10.24s4.588,10.24,10.24,10.24h296.96
	c5.652,0,10.24-4.588,10.24-10.24S410.132,384,404.48,384z M107.52,307.2h296.96c5.652,0,10.24-4.582,10.24-10.24
	c0-5.652-4.588-10.24-10.24-10.24H107.52c-5.652,0-10.24,4.588-10.24,10.24C97.28,302.618,101.868,307.2,107.52,307.2z"/>
<g>
	<path style="fill:#D6B98F;" d="M161.28,353.28c-7.071,0-12.8-5.729-12.8-12.8c0-2.217,0.614-4.265,1.597-6.083
		c-3.983,2.171-6.717,6.349-6.717,11.203c0,7.071,5.729,12.8,12.8,12.8c4.859,0,9.032-2.734,11.203-6.717
		C165.545,352.671,163.492,353.28,161.28,353.28z M212.48,353.28c-7.071,0-12.8-5.729-12.8-12.8c0-2.217,0.614-4.265,1.597-6.083
		c-3.983,2.171-6.717,6.349-6.717,11.203c0,7.071,5.729,12.8,12.8,12.8c4.859,0,9.032-2.734,11.203-6.717
		C216.745,352.671,214.692,353.28,212.48,353.28z M366.08,353.28c-7.071,0-12.8-5.729-12.8-12.8c0-2.217,0.609-4.265,1.597-6.083
		c-3.983,2.171-6.717,6.349-6.717,11.203c0,7.071,5.729,12.8,12.8,12.8c4.854,0,9.032-2.734,11.203-6.717
		C370.345,352.671,368.297,353.28,366.08,353.28z M263.68,353.28c-7.071,0-12.8-5.729-12.8-12.8c0-2.217,0.614-4.265,1.597-6.083
		c-3.983,2.171-6.717,6.349-6.717,11.203c0,7.071,5.729,12.8,12.8,12.8c4.854,0,9.032-2.734,11.203-6.717
		C267.945,352.671,265.897,353.28,263.68,353.28z M314.88,353.28c-7.071,0-12.8-5.729-12.8-12.8c0-2.217,0.609-4.265,1.597-6.083
		c-3.983,2.171-6.717,6.349-6.717,11.203c0,7.071,5.729,12.8,12.8,12.8c4.854,0,9.032-2.734,11.203-6.717
		C319.145,352.671,317.097,353.28,314.88,353.28z"/>
</g>
<path style="fill:#3293B2;" d="M266.24,250.88c-11.31,0-20.48-9.17-20.48-20.48c0-4.347,1.377-8.361,3.686-11.674
	c-5.315,3.697-8.806,9.83-8.806,16.794c0,11.31,9.17,20.48,20.48,20.48c6.963,0,13.097-3.492,16.794-8.806
	C274.601,249.503,270.587,250.88,266.24,250.88z"/>
<g>
</g>
<g>
</g>
<g>
</g>
<g>
</g>
<g>
</g>
<g>
</g>
<g>
</g>
<g>
</g>
<g>
</g>
<g>
</g>
<g>
</g>
<g>
</g>
<g>
</g>
<g>
</g>
<g>
</g>
</svg>
