<?xml version="1.0" encoding="iso-8859-1"?>
<!-- Generator: Adobe Illustrator 19.0.0, SVG Export Plug-In . SVG Version: 6.00 Build 0)  -->
<svg version="1.1" id="Layer_1" xmlns="http://www.w3.org/2000/svg" xmlns:xlink="http://www.w3.org/1999/xlink" x="0px" y="0px"
	 viewBox="0 0 512 512" style="enable-background:new 0 0 512 512;" xml:space="preserve">
<path style="fill:#3DB39E;" d="M256,0.003C114.616,0.003,0,114.614,0,255.997c0,141.389,114.616,256,256,256s256-114.611,256-256
	C512,114.614,397.384,0.003,256,0.003z"/>
<g>
	<path style="fill:#37A18E;" d="M362.23,178.24h36.019c4.736,0,8.678,3.272,9.815,7.68c0.21-0.824,0.358-1.669,0.358-2.56
		c0-5.652-4.557-10.24-10.173-10.24H362.23c-13.174,0-23.88-10.122-25.175-23.04c-0.087,0.855-0.256,1.684-0.256,2.56
		C336.799,166.781,348.186,178.24,362.23,178.24z M398.249,208.96h-73.487l-10.148-10.24h-5.074l15.227,15.36h73.492
		c14.044,0,25.431-11.464,25.431-25.6c0-0.876-0.169-1.705-0.256-2.56C422.129,198.838,411.423,208.96,398.249,208.96z"/>
</g>
<path style="fill:#E4E7E7;" d="M362.23,137.28h120.566c-2.739-5.228-5.632-10.353-8.709-15.36H362.23
	c-14.044,0-25.431,11.464-25.431,25.6c0,14.136,11.387,25.6,25.431,25.6h36.019c5.622,0,10.173,4.588,10.173,10.24
	s-4.557,10.24-10.173,10.24h-88.714l15.227,15.36h73.492c14.044,0,25.431-11.464,25.431-25.6c0-14.136-11.387-25.6-25.431-25.6
	H362.23c-5.622,0-10.173-4.588-10.173-10.24C352.056,141.868,356.608,137.28,362.23,137.28z"/>
<g>
	<path style="fill:#37A18E;" d="M209.92,202.232c0-9.897-8.023-17.92-17.92-17.92c-6.262,0-11.75,3.22-14.956,8.084
		c2.826-1.864,6.2-2.964,9.836-2.964c9.897,0,17.92,8.023,17.92,17.92c0,3.635-1.101,7.014-2.964,9.836
		C206.7,213.988,209.92,208.494,209.92,202.232z M288.609,399.291c-6.938,6.932-18.181,6.932-25.114,0L145.188,282.186
		c-0.855-0.855-7.025-10.404-7.025-18.227l0.051-98.888c0-4.173,0.522-7.322,1.597-9.759c-4.797,2.104-6.717,6.579-6.717,14.879
		l-0.051,98.888c0,7.818,6.17,17.372,7.025,18.227l118.308,117.105c6.932,6.932,18.176,6.932,25.114,0l100.449-100.372l0.02-0.02
		L288.609,399.291L288.609,399.291z"/>
</g>
<path style="fill:#EFC75E;" d="M389.059,273.82L271.862,155.604c-0.865-0.865-9.324-7.03-18.063-7.055
	c-24.284,0.256-73.626,0.092-99.374,0.092c-12.042,0-16.21,3.968-16.21,16.43l-0.051,98.888c0,7.818,6.17,17.372,7.025,18.227
	l118.308,117.105c6.932,6.932,18.176,6.932,25.114,0l100.449-100.372C395.991,291.986,395.991,280.753,389.059,273.82
	L389.059,273.82z M192,220.152c-9.897,0-17.92-8.023-17.92-17.92c0-9.897,8.023-17.92,17.92-17.92c9.897,0,17.92,8.023,17.92,17.92
	C209.92,212.129,201.897,220.152,192,220.152z"/>
<path style="fill:#30444D;" d="M192,174.072c-15.555,0-28.16,12.605-28.16,28.16s12.605,28.16,28.16,28.16s28.16-12.605,28.16-28.16
	S207.555,174.072,192,174.072z M192,215.032c-7.071,0-12.8-5.729-12.8-12.8s5.729-12.8,12.8-12.8s12.8,5.729,12.8,12.8
	S199.071,215.032,192,215.032z"/>
<path style="fill:#D07C40;" d="M276.48,266.232c11.31,0,20.48-9.17,20.48-20.48c0-11.31-9.17-20.48-20.48-20.48
	c-11.31,0-20.48,9.17-20.48,20.48C256,257.062,265.17,266.232,276.48,266.232z M276.48,235.512c5.652,0,10.24,4.588,10.24,10.24
	s-4.588,10.24-10.24,10.24c-5.652,0-10.24-4.588-10.24-10.24S270.828,235.512,276.48,235.512z M276.48,307.192
	c-11.31,0-20.48,9.17-20.48,20.48c0,11.31,9.17,20.48,20.48,20.48c11.31,0,20.48-9.17,20.48-20.48
	C296.96,316.362,287.79,307.192,276.48,307.192z M276.48,337.912c-5.652,0-10.24-4.588-10.24-10.24c0-5.652,4.588-10.24,10.24-10.24
	c5.652,0,10.24,4.588,10.24,10.24C286.72,333.325,282.132,337.912,276.48,337.912z M327.68,281.592h-102.4
	c-2.826,0-5.12,2.289-5.12,5.12s2.294,5.12,5.12,5.12h102.4c2.831,0,5.12-2.289,5.12-5.12S330.511,281.592,327.68,281.592z"/>
<path style="fill:#CDCFCF;" d="M323.732,193.6h-14.198l15.227,15.36h14.331L323.732,193.6z"/>
<path style="fill:#E4E7E7;" d="M7.475,194.552c-1.249,5.059-2.319,10.189-3.256,15.36h197.965c1.618-2.145,2.616-4.787,2.616-7.68
	s-0.998-5.535-2.616-7.68H7.475L7.475,194.552z"/>
<path style="fill:#F2D27E;" d="M389.059,273.82L271.862,155.604c-0.865-0.865-9.324-7.03-18.063-7.055
	c-24.284,0.256-73.626,0.092-99.374,0.092c-8.008,0-12.483,1.828-14.612,6.671c2.401-1.055,5.473-1.551,9.492-1.551
	c25.748,0,75.095,0.164,99.374-0.092c8.74,0.026,17.198,6.185,18.063,7.055L383.939,278.94c6.927,6.927,6.932,18.14,0.02,25.078
	l5.1-5.1C395.991,291.986,395.991,280.753,389.059,273.82z"/>
<path style="fill:#37A18E;" d="M482.796,137.28H362.23c-5.622,0-10.173,4.588-10.173,10.24c0,0.891,0.148,1.736,0.358,2.56
	c1.137-4.408,5.079-7.68,9.815-7.68h123.192C484.567,140.685,483.686,138.98,482.796,137.28L482.796,137.28z M202.184,209.912H5.304
	l-1.085,5.12H192C196.173,215.032,199.844,213.005,202.184,209.912L202.184,209.912z"/>
<path style="fill:#D7B354;" d="M138.189,215.032h41.293c-1.5-1.464-2.703-3.205-3.615-5.12h-37.673L138.189,215.032z"/>
<path style="fill:#273A45;" d="M166.938,215.032H192c-4.173,0-7.844-2.028-10.184-5.12h-16.891
	C165.432,211.699,166.108,213.409,166.938,215.032L166.938,215.032z"/>
<path style="fill:#319180;" d="M133.074,215.032h5.115l0.005-5.12h-5.115L133.074,215.032z"/>
<g>
</g>
<g>
</g>
<g>
</g>
<g>
</g>
<g>
</g>
<g>
</g>
<g>
</g>
<g>
</g>
<g>
</g>
<g>
</g>
<g>
</g>
<g>
</g>
<g>
</g>
<g>
</g>
<g>
</g>
</svg>
