<?xml version="1.0" encoding="iso-8859-1"?>
<!-- Generator: Adobe Illustrator 19.0.0, SVG Export Plug-In . SVG Version: 6.00 Build 0)  -->
<svg version="1.1" id="Layer_1" xmlns="http://www.w3.org/2000/svg" xmlns:xlink="http://www.w3.org/1999/xlink" x="0px" y="0px"
	 viewBox="0 0 512 512" style="enable-background:new 0 0 512 512;" xml:space="preserve">
<path style="fill:#EFC75E;" d="M256,0c141.384,0,256,114.616,256,256c0,141.389-114.616,256-256,256S0,397.389,0,256
	C0,114.616,114.616,0,256,0z"/>
<path style="fill:#FDF0DE;" d="M122.88,138.24h266.24c28.278,0,51.2,22.922,51.2,51.2V460.8c0,28.273-22.922,51.2-51.2,51.2H122.88
	c-28.278,0-51.2-22.927-51.2-51.2V189.44C71.68,161.162,94.602,138.24,122.88,138.24z"/>
<path style="fill:#324D5B;" d="M71.68,460.8c0,28.273,22.922,51.2,51.2,51.2h266.24c28.278,0,51.2-22.927,51.2-51.2v-51.2H71.68
	V460.8z"/>
<path style="fill:#2B414D;" d="M140.8,445.44h230.4c7.071,0,12.8,5.729,12.8,12.8s-5.729,12.8-12.8,12.8H140.8
	c-7.066,0-12.8-5.729-12.8-12.8S133.734,445.44,140.8,445.44z"/>
<path style="fill:#E49ADF;" d="M209.92,307.2h30.72v102.4h-30.72V307.2z"/>
<path style="fill:#E5C45A;" d="M240.64,307.2h30.72v102.4h-30.72V307.2z"/>
<path style="fill:#A6D26E;" d="M271.36,307.2h30.72v102.4h-30.72V307.2z"/>
<path style="fill:#2B414D;" d="M256,204.8c39.588,0,71.68,32.092,71.68,71.68c0,39.583-32.092,71.68-71.68,71.68
	s-71.68-32.097-71.68-71.68C184.32,236.887,216.412,204.8,256,204.8z"/>
<path style="fill:#475F6C;" d="M256,220.16c31.104,0,56.32,25.216,56.32,56.32S287.104,332.8,256,332.8s-56.32-25.216-56.32-56.32
	S224.896,220.16,256,220.16z"/>
<path style="fill:#2B414D;" d="M256,235.52c22.62,0,40.96,18.34,40.96,40.96c0,22.62-18.34,40.96-40.96,40.96
	s-40.96-18.34-40.96-40.96C215.04,253.86,233.38,235.52,256,235.52z"/>
<path style="fill:#1E2D36;" d="M256,256c11.31,0,20.48,9.17,20.48,20.48c0,11.31-9.17,20.48-20.48,20.48
	c-11.31,0-20.48-9.17-20.48-20.48C235.52,265.17,244.69,256,256,256z"/>
<path style="fill:#545F66;" d="M248.32,261.12c4.244,0,7.68,3.441,7.68,7.68s-3.436,7.68-7.68,7.68s-7.68-3.441-7.68-7.68
	S244.076,261.12,248.32,261.12z"/>
<path style="fill:#3F5E6D;" d="M368.64,204.8h20.48c5.652,0,10.24,4.588,10.24,10.24v20.48c0,5.652-4.588,10.24-10.24,10.24h-20.48
	c-5.652,0-10.24-4.588-10.24-10.24v-20.48C358.4,209.388,362.988,204.8,368.64,204.8z"/>
<path style="fill:#E2574C;" d="M135.68,250.88c9.897,0,17.92,8.018,17.92,17.92c0,9.897-8.023,17.92-17.92,17.92
	c-9.897,0-17.92-8.023-17.92-17.92C117.76,258.898,125.783,250.88,135.68,250.88z"/>
<path style="fill:#D2BB9A;" d="M122.88,204.8h25.6c5.652,0,10.24,4.588,10.24,10.24v5.12c0,5.652-4.588,10.24-10.24,10.24h-25.6
	c-5.652,0-10.24-4.588-10.24-10.24v-5.12C112.64,209.388,117.228,204.8,122.88,204.8z"/>
<path style="fill:#FEF6EB;" d="M71.68,378.88h368.64v30.72H71.68V378.88z"/>
<path style="fill:#EFC2EC;" d="M209.92,378.88h30.72v30.72h-30.72V378.88z"/>
<path style="fill:#EFDC9C;" d="M240.64,378.88h30.72v30.72h-30.72V378.88z"/>
<path style="fill:#CAE4A8;" d="M271.36,378.88h30.72v30.72h-30.72V378.88z"/>
<path style="fill:#F4D9B2;" d="M389.12,138.24H122.88c-28.278,0-51.2,22.922-51.2,51.2v25.6c0-28.278,22.922-51.2,51.2-51.2h266.24
	c28.278,0,51.2,22.922,51.2,51.2v-25.6C440.32,161.162,417.398,138.24,389.12,138.24z"/>
<g>
</g>
<g>
</g>
<g>
</g>
<g>
</g>
<g>
</g>
<g>
</g>
<g>
</g>
<g>
</g>
<g>
</g>
<g>
</g>
<g>
</g>
<g>
</g>
<g>
</g>
<g>
</g>
<g>
</g>
</svg>
