<?xml version="1.0" encoding="iso-8859-1"?>
<!-- Generator: Adobe Illustrator 18.0.0, SVG Export Plug-In . SVG Version: 6.00 Build 0)  -->
<!DOCTYPE svg PUBLIC "-//W3C//DTD SVG 1.1//EN" "http://www.w3.org/Graphics/SVG/1.1/DTD/svg11.dtd">
<svg version="1.1" id="Capa_1" xmlns="http://www.w3.org/2000/svg" xmlns:xlink="http://www.w3.org/1999/xlink" x="0px" y="0px"
	 viewBox="0 0 54.981 54.981" style="enable-background:new 0 0 54.981 54.981;" xml:space="preserve">
<g>
	<g>
		<path style="fill:#3ABCA7;" d="M43.992,52H8.72c-4.619,0-8.364-3.745-8.364-8.364V8.364C0.356,3.745,4.101,0,8.72,0h35.272
			c4.619,0,8.364,3.745,8.364,8.364v35.272C52.356,48.255,48.611,52,43.992,52z"/>
		<path style="fill:#FFFFFF;" d="M44.356,14h-18c-0.552,0-1-0.447-1-1s0.448-1,1-1h18c0.552,0,1,0.447,1,1S44.908,14,44.356,14z"/>
		<path style="fill:#FFFFFF;" d="M44.356,28h-18c-0.552,0-1-0.447-1-1s0.448-1,1-1h18c0.552,0,1,0.447,1,1S44.908,28,44.356,28z"/>
		<path style="fill:#FFFFFF;" d="M44.356,42h-18c-0.552,0-1-0.447-1-1s0.448-1,1-1h18c0.552,0,1,0.447,1,1S44.908,42,44.356,42z"/>
		<path style="fill:#FFFFFF;" d="M12.427,17c-0.209,0-0.42-0.065-0.6-0.2l-4.571-3.429c-0.442-0.331-0.531-0.958-0.2-1.399
			c0.331-0.441,0.958-0.531,1.4-0.2l3.822,2.866l6.248-7.288c0.359-0.42,0.991-0.468,1.41-0.108c0.419,0.359,0.468,0.99,0.108,1.409
			l-6.857,8C12.989,16.881,12.709,17,12.427,17z"/>
		<path style="fill:#FFFFFF;" d="M12.427,31c-0.209,0-0.42-0.065-0.6-0.2l-4.571-3.429c-0.442-0.331-0.531-0.958-0.2-1.399
			c0.331-0.441,0.958-0.531,1.4-0.2l3.822,2.866l6.248-7.288c0.359-0.42,0.991-0.468,1.41-0.108c0.419,0.359,0.468,0.99,0.108,1.409
			l-6.857,8C12.989,30.881,12.709,31,12.427,31z"/>
		<path style="fill:#FFFFFF;" d="M12.427,45.999c-0.209,0-0.42-0.065-0.6-0.2L7.256,42.37c-0.442-0.331-0.531-0.958-0.2-1.399
			c0.331-0.441,0.958-0.531,1.4-0.2l3.822,2.866l6.248-7.287c0.359-0.421,0.991-0.469,1.41-0.108
			c0.419,0.359,0.468,0.99,0.108,1.409l-6.857,7.999C12.989,45.88,12.709,45.999,12.427,45.999z"/>
	</g>
	<g>
		<polygon style="fill:#EDDCC7;" points="33.192,45.489 33.184,45.496 31.196,52.786 35.843,48.139 		"/>
		<path style="fill:#D75A4A;" d="M52.442,31.54l-1.247-1.247c-0.775-0.775-2.032-0.775-2.807,0l-3.582,3.582l2.651,2.651
			L52.442,31.54z"/>
		
			<rect x="38.45" y="32.795" transform="matrix(0.7071 0.7071 -0.7071 0.7071 40.8071 -16.5028)" style="fill:#F29C21;" width="3.749" height="16.424"/>
		<polygon style="fill:#D6C4B1;" points="38.841,51.153 38.849,51.145 35.843,48.139 31.196,52.786 31.063,53.274 		"/>
		<path style="fill:#A34740;" d="M50.462,39.532l3.582-3.582c0.775-0.775,0.775-2.032,0-2.807l-1.602-1.602l-4.985,4.985
			L50.462,39.532z"/>
		
			<rect x="41.027" y="35.623" transform="matrix(-0.7071 -0.7071 0.7071 -0.7071 42.6691 105.3453)" style="fill:#E18C25;" width="4.251" height="16.424"/>
		<path style="fill:#5E5E5E;" d="M30.356,54.981c-0.256,0-0.512-0.098-0.707-0.293c-0.391-0.391-0.391-1.023,0-1.414l2.207-2.207
			c0.391-0.391,1.023-0.391,1.414,0s0.391,1.023,0,1.414l-2.207,2.207C30.868,54.884,30.612,54.981,30.356,54.981z"/>
	</g>
</g>
<g>
</g>
<g>
</g>
<g>
</g>
<g>
</g>
<g>
</g>
<g>
</g>
<g>
</g>
<g>
</g>
<g>
</g>
<g>
</g>
<g>
</g>
<g>
</g>
<g>
</g>
<g>
</g>
<g>
</g>
</svg>
